#!OML:ASF E:\Style4\Style4.ASF
:FULLY-SPECIFIED
:DEGREES
4442
root 0.755567 17.6555 -1.90689 6.89313 -21.2833 0.497966
lowerback 16.021 0.856105 -2.78333
upperback 8.39533 0.635892 0.179773
thorax -0.0953847 0.181909 1.65911
lowerneck -2.85233 -2.88824 -4.07354
upperneck 8.33634 -3.7946 2.04297
head 3.32199 -1.93316 1.2346
rclavicle 1.78906e-014 5.96354e-015
rhumerus 44.4232 8.92636 -47.0578
rradius 51.8254
rwrist -9.54633
rhand 28.0023 2.55624
rfingers 7.12502
rthumb 51.9023 -17.6073
lclavicle 1.78906e-014 5.96354e-015
lhumerus 50.2924 -24.513 28.72
lradius 69.5018
lwrist 14.209
lhand 26.8177 32.3069
lfingers 7.12502
lthumb 50.8245 53.0857
rfemur -30.9551 7.54976 16.0499
rtibia 35.0135
rfoot -10.3312 -8.27755
rtoes -19.2131
lfemur -26.2946 11.0523 -21.815
ltibia 38.886
lfoot -22.4134 16.2341
ltoes -8.72384
4443
root 0.754288 17.6546 -1.90631 6.89125 -21.261 0.535342
lowerback 15.9844 0.856223 -2.83903
upperback 8.41214 0.630218 0.195024
thorax -0.058407 0.176347 1.70771
lowerneck -2.8545 -2.89945 -4.07111
upperneck 8.31226 -3.80522 1.9932
head 3.31294 -1.93994 1.2173
rclavicle 3.926e-015 -2.93207e-015
rhumerus 44.4988 8.80049 -47.0336
rradius 51.7362
rwrist -9.53062
rhand 28.0094 2.83096
rfingers 7.12502
rthumb 51.9087 -17.3287
lclavicle 3.926e-015 -2.93207e-015
lhumerus 50.3705 -24.4642 28.7162
lradius 69.4737
lwrist 14.1952
lhand 26.8459 32.3346
lfingers 7.12502
lthumb 50.8503 53.0991
rfemur -30.9733 7.51574 16.0181
rtibia 35.0346
rfoot -10.3304 -8.28661
rtoes -19.2759
lfemur -26.2964 11.025 -21.8555
ltibia 38.8823
lfoot -22.4122 16.3244
ltoes -9.05681
4444
root 0.7527 17.6536 -1.90503 6.90096 -21.2216 0.566797
lowerback 15.9458 0.833885 -2.85827
upperback 8.41459 0.599886 0.18323
thorax -0.0340435 0.160677 1.71119
lowerneck -2.78814 -2.89929 -4.03821
upperneck 8.22318 -3.80704 1.97319
head 3.26803 -1.94036 1.20569
rclavicle 2.40778e-014 4.24902e-015
rhumerus 44.5444 8.75179 -47.0236
rradius 51.7617
rwrist -9.38327
rhand 28.0365 2.77292
rfingers 7.12502
rthumb 51.9333 -17.3722
lclavicle 2.40778e-014 4.24902e-015
lhumerus 50.4946 -24.4176 28.577
lradius 69.4398
lwrist 14.2863
lhand 26.8367 32.3008
lfingers 7.12502
lthumb 50.8419 53.07
rfemur -30.986 7.47378 15.9904
rtibia 35.0505
rfoot -10.3228 -8.3034
rtoes -19.1719
lfemur -26.3157 10.9598 -21.8837
ltibia 38.9014
lfoot -22.3905 16.3669
ltoes -9.32026
4445
root 0.751447 17.654 -1.90339 6.89524 -21.2338 0.587161
lowerback 15.9628 0.827106 -2.87109
upperback 8.40349 0.588197 0.158215
thorax -0.054 0.155433 1.6939
lowerneck -2.75675 -2.89329 -4.04143
upperneck 8.18674 -3.80422 2.0283
head 3.25108 -1.9371 1.22495
rclavicle -1.90088e-014 -3.07619e-014
rhumerus 44.5995 8.75176 -46.9541
rradius 51.8005
rwrist -9.34787
rhand 27.9451 2.58967
rfingers 7.12502
rthumb 51.8503 -17.6045
lclavicle -1.90088e-014 -3.07619e-014
lhumerus 50.5877 -24.3746 28.4446
lradius 69.4696
lwrist 14.3676
lhand 26.8391 32.4425
lfingers 7.12502
lthumb 50.8441 53.2105
rfemur -30.9888 7.49777 15.9614
rtibia 35.0657
rfoot -10.3817 -8.29417
rtoes -18.8578
lfemur -26.3235 10.942 -21.9107
ltibia 38.934
lfoot -22.305 16.4823
ltoes -9.97485
4446
root 0.750904 17.6541 -1.90187 6.91579 -21.2343 0.555986
lowerback 15.9589 0.822809 -2.88794
upperback 8.39915 0.581115 0.193926
thorax -0.0565094 0.15069 1.74199
lowerneck -2.75323 -2.8959 -4.00701
upperneck 8.1692 -3.80246 1.93937
head 3.24072 -1.93822 1.1897
rclavicle 6.14742e-014 -4.19436e-014
rhumerus 44.7272 8.73681 -46.7599
rradius 51.746
rwrist -9.54618
rhand 27.7584 2.74074
rfingers 7.12502
rthumb 51.6808 -17.5526
lclavicle 6.14742e-014 -4.19436e-014
lhumerus 50.6067 -24.297 28.469
lradius 69.4562
lwrist 14.4277
lhand 26.7834 32.5061
lfingers 7.12502
lthumb 50.7932 53.3021
rfemur -31.002 7.49741 15.9933
rtibia 35.081
rfoot -10.4041 -8.28905
rtoes -18.7331
lfemur -26.3687 10.9255 -21.8866
ltibia 38.9922
lfoot -22.2383 16.602
ltoes -10.6714
4447
root 0.750122 17.6527 -1.89861 6.92315 -21.2447 0.514763
lowerback 15.9465 0.823212 -2.88306
upperback 8.40334 0.583128 0.219065
thorax -0.0458685 0.151037 1.76535
lowerneck -2.75671 -2.89603 -3.96111
upperneck 8.2041 -3.79998 1.87078
head 3.25 -1.93819 1.15901
rclavicle 1.46355e-014 1.28216e-014
rhumerus 44.7943 8.63179 -46.7489
rradius 51.6049
rwrist -9.63178
rhand 27.4991 3.21005
rfingers 7.12502
rthumb 51.4452 -17.2195
lclavicle 1.46355e-014 1.28216e-014
lhumerus 50.6767 -24.2342 28.4476
lradius 69.4181
lwrist 14.4234
lhand 26.787 32.5184
lfingers 7.12502
lthumb 50.7966 53.3126
rfemur -31.0034 7.50813 16.0355
rtibia 35.1085
rfoot -10.4432 -8.29754
rtoes -18.6323
lfemur -26.3826 10.9387 -21.8494
ltibia 39.0511
lfoot -22.2545 16.7092
ltoes -11.3786
4448
root 0.747497 17.6489 -1.89656 6.87853 -21.2479 0.478188
lowerback 15.9954 0.833157 -2.91812
upperback 8.42922 0.590146 0.25915
thorax -0.0446432 0.151923 1.82592
lowerneck -2.82497 -2.89545 -3.97293
upperneck 8.25186 -3.7944 1.84785
head 3.27898 -1.93655 1.1529
rclavicle 3.24516e-014 -8.59744e-015
rhumerus 44.8764 8.516 -46.7416
rradius 51.5086
rwrist -9.55767
rhand 27.3733 3.55745
rfingers 7.12502
rthumb 51.3307 -16.9375
lclavicle 3.24516e-014 -8.59744e-015
lhumerus 50.7901 -24.1444 28.3776
lradius 69.4083
lwrist 14.4373
lhand 26.8084 32.5333
lfingers 7.12502
lthumb 50.8161 53.3168
rfemur -30.9604 7.4939 16.0971
rtibia 35.1611
rfoot -10.465 -8.29943
rtoes -18.7752
lfemur -26.3357 10.9457 -21.7926
ltibia 39.0994
lfoot -22.3161 16.6905
ltoes -11.0357
4449
root 0.744783 17.6458 -1.89615 6.8386 -21.2229 0.484196
lowerback 16.1401 0.814962 -2.8752
upperback 8.38022 0.566126 0.206009
thorax -0.170654 0.144921 1.74889
lowerneck -2.81743 -2.8942 -3.9978
upperneck 8.28996 -3.80076 1.95455
head 3.29472 -1.93696 1.19222
rclavicle 5.29761e-014 -6.06293e-015
rhumerus 44.8836 8.45655 -46.8243
rradius 51.4667
rwrist -9.48343
rhand 27.4252 3.60195
rfingers 7.12502
rthumb 51.3779 -16.8661
lclavicle 5.29761e-014 -6.06293e-015
lhumerus 50.8851 -24.1484 28.2157
lradius 69.3858
lwrist 14.4584
lhand 26.7359 32.4441
lfingers 7.12502
lthumb 50.7499 53.264
rfemur -30.9462 7.46685 16.1091
rtibia 35.2239
rfoot -10.5167 -8.31947
rtoes -18.7922
lfemur -26.3072 10.9025 -21.763
ltibia 39.1338
lfoot -22.4403 16.5225
ltoes -10.0448
4450
root 0.74197 17.6437 -1.89544 6.77494 -21.1461 0.554287
lowerback 16.1704 0.789477 -2.99151
upperback 8.3921 0.51639 0.217425
thorax -0.17147 0.11626 1.83438
lowerneck -2.7494 -2.88552 -4.06964
upperneck 8.22854 -3.79028 1.99384
head 3.26343 -1.93264 1.21914
rclavicle 6.4605e-015 -5.96354e-015
rhumerus 44.9994 8.40375 -46.8072
rradius 51.4487
rwrist -9.4026
rhand 27.6037 3.70922
rfingers 7.12502
rthumb 51.5402 -16.6656
lclavicle 6.4605e-015 -5.96354e-015
lhumerus 50.9167 -24.0436 28.2312
lradius 69.374
lwrist 14.4492
lhand 26.7375 32.4289
lfingers 7.12502
lthumb 50.7514 53.2479
rfemur -30.9264 7.37668 16.0633
rtibia 35.2957
rfoot -10.5513 -8.34802
rtoes -18.9006
lfemur -26.2746 10.8193 -21.8013
ltibia 39.1657
lfoot -22.568 16.3615
ltoes -9.3462
4451
root 0.738291 17.6436 -1.89356 6.7354 -21.0577 0.555594
lowerback 16.2646 0.761907 -3.04657
upperback 8.35182 0.470091 0.234146
thorax -0.261103 0.0932602 1.89006
lowerneck -2.67131 -2.88038 -4.07737
upperneck 8.21966 -3.78644 1.99766
head 3.2457 -1.93126 1.22279
rclavicle -8.87077e-015 -2.47487e-014
rhumerus 45.0367 8.4267 -46.7583
rradius 51.456
rwrist -9.32265
rhand 27.5802 3.70077
rfingers 7.12502
rthumb 51.5189 -16.6864
lclavicle -8.87077e-015 -2.47487e-014
lhumerus 50.9263 -24.012 28.1962
lradius 69.3387
lwrist 14.4807
lhand 26.6627 32.4274
lfingers 7.12502
lthumb 50.6832 53.2839
rfemur -30.8779 7.26879 16.0991
rtibia 35.3565
rfoot -10.5923 -8.34344
rtoes -19.0188
lfemur -26.2655 10.7779 -21.7819
ltibia 39.228
lfoot -22.5384 16.3558
ltoes -9.53198
4452
root 0.736215 17.6421 -1.89117 6.74892 -20.9784 0.479096
lowerback 16.1498 0.749854 -3.04464
upperback 8.40465 0.460665 0.305254
thorax -0.144752 0.0846265 1.96559
lowerneck -2.63373 -2.89938 -4.08831
upperneck 8.17965 -3.80855 1.95187
head 3.22455 -1.94406 1.20923
rclavicle 4.45278e-014 8.94531e-015
rhumerus 45.1237 8.38384 -46.5776
rradius 51.528
rwrist -9.24822
rhand 27.5279 3.45693
rfingers 7.12502
rthumb 51.4713 -16.9576
lclavicle 4.45278e-014 8.94531e-015
lhumerus 51.0589 -23.8909 28.1923
lradius 69.2662
lwrist 14.5304
lhand 26.7042 32.4458
lfingers 7.12502
lthumb 50.7211 53.2815
rfemur -30.8555 7.13587 16.2129
rtibia 35.4199
rfoot -10.6838 -8.30703
rtoes -18.9831
lfemur -26.3134 10.7711 -21.7037
ltibia 39.3394
lfoot -22.4122 16.493
ltoes -10.5181
4453
root 0.734075 17.6384 -1.89029 6.81282 -20.8481 0.371371
lowerback 16.1195 0.68675 -2.92762
upperback 8.39086 0.396429 0.323844
thorax -0.1402 0.0562432 1.92928
lowerneck -2.64382 -2.90011 -4.14911
upperneck 8.25406 -3.81198 2.01975
head 3.256 -1.94569 1.24199
rclavicle -3.48867e-014 1.78409e-014
rhumerus 45.1732 8.41839 -46.4312
rradius 51.6126
rwrist -9.2879
rhand 27.579 3.16809
rfingers 7.12502
rthumb 51.5178 -17.2197
lclavicle -3.48867e-014 1.78409e-014
lhumerus 51.1137 -23.8117 28.1559
lradius 69.2407
lwrist 14.5422
lhand 26.7106 32.3916
lfingers 7.12502
lthumb 50.7268 53.2242
rfemur -30.8876 6.96654 16.3577
rtibia 35.499
rfoot -10.7572 -8.2499
rtoes -18.9405
lfemur -26.4406 10.7296 -21.5901
ltibia 39.4969
lfoot -22.3066 16.5575
ltoes -11.2872
4454
root 0.728479 17.6322 -1.89642 6.85315 -20.6002 0.252816
lowerback 16.2039 0.604452 -2.8741
upperback 8.34371 0.295859 0.384323
thorax -0.22924 0.00890497 1.97845
lowerneck -2.55993 -2.90594 -4.20294
upperneck 8.26173 -3.82393 2.06359
head 3.246 -1.95228 1.2664
rclavicle -1.87106e-014 1.16289e-014
rhumerus 45.2189 8.40667 -46.3744
rradius 51.6095
rwrist -9.34826
rhand 27.5801 3.19825
rfingers 7.12502
rthumb 51.5188 -17.189
lclavicle -1.87106e-014 1.16289e-014
lhumerus 51.1017 -23.7568 28.2203
lradius 69.2029
lwrist 14.484
lhand 26.7323 32.4752
lfingers 7.12502
lthumb 50.7467 53.2969
rfemur -30.9091 6.81474 16.5381
rtibia 35.6016
rfoot -10.7711 -8.3751
rtoes -19.0691
lfemur -26.5765 10.635 -21.4222
ltibia 39.6719
lfoot -22.2867 16.4575
ltoes -11.5597
4455
root 0.720546 17.6248 -1.9086 6.80825 -20.2425 0.187931
lowerback 16.3269 0.510247 -2.92531
upperback 8.35259 0.164898 0.469983
thorax -0.276329 -0.0587575 2.11853
lowerneck -2.52332 -2.91227 -4.23372
upperneck 8.24428 -3.8345 2.09425
head 3.23523 -1.9575 1.28198
rclavicle -1.13556e-014 2.88238e-014
rhumerus 45.3771 8.34591 -46.311
rradius 51.4852
rwrist -9.34542
rhand 27.5031 3.22131
rfingers 7.12502
rthumb 51.4488 -17.2061
lclavicle -1.13556e-014 2.88238e-014
lhumerus 51.1444 -23.6378 28.2867
lradius 69.1809
lwrist 14.412
lhand 26.6977 32.6004
lfingers 7.12502
lthumb 50.7151 53.4394
rfemur -30.8593 6.59671 16.6925
rtibia 35.7333
rfoot -10.821 -8.55101
rtoes -19.2343
lfemur -26.6486 10.513 -21.2672
ltibia 39.8261
lfoot -22.3059 16.1382
ltoes -10.9577
4456
root 0.714428 17.6176 -1.91466 6.74353 -20.0219 0.14671
lowerback 16.3005 0.476666 -3.12084
upperback 8.44265 0.0986135 0.625116
thorax -0.161083 -0.104336 2.4027
lowerneck -2.57158 -2.91044 -4.27615
upperneck 8.23435 -3.81769 1.97296
head 3.23807 -1.95435 1.2496
rclavicle -2.23633e-016 2.16675e-014
rhumerus 45.645 8.31196 -46.0632
rradius 51.408
rwrist -9.32027
rhand 27.4742 3.1412
rfingers 7.12502
rthumb 51.4224 -17.3014
lclavicle -2.23633e-016 2.16675e-014
lhumerus 51.2121 -23.4202 28.4478
lradius 69.1162
lwrist 14.3686
lhand 26.6667 32.5835
lfingers 7.12502
lthumb 50.6868 53.438
rfemur -30.8246 6.42699 16.7996
rtibia 35.8786
rfoot -10.8936 -8.62315
rtoes -19.2664
lfemur -26.6439 10.3891 -21.1458
ltibia 39.9349
lfoot -22.3847 15.8127
ltoes -9.84274
